<svg width="250" height="250" viewBox="0 0 250 250" fill="none" xmlns="http://www.w3.org/2000/svg">
<circle cx="125" cy="125" r="125" fill="#E2E4EA"/>
<circle cx="125.39" cy="144.244" r="52.6742" transform="rotate(15 125.39 144.244)" fill="#A7A9BC" stroke="#7B7C8D" stroke-width="2"/>
<mask id="path-3-inside-1" fill="white">
<path fill-rule="evenodd" clip-rule="evenodd" d="M108.201 98.222C107.961 99.1172 107.138 99.7304 106.212 99.7036L96.5358 99.4235C95.2452 99.3861 94.3277 98.1539 94.6619 96.9067L101.383 71.8241C106.657 52.1387 126.892 40.4565 146.577 45.7312C166.263 51.0059 177.945 71.2401 172.67 90.9255L166.801 112.829C166.4 114.325 164.523 114.817 163.44 113.71L155.785 105.889C155.29 105.384 155.099 104.655 155.282 103.972L159.709 87.4525C163.065 74.9254 155.631 62.0491 143.104 58.6925C130.577 55.3359 117.701 62.77 114.344 75.2971L108.201 98.222Z"/>
</mask>
<path fill-rule="evenodd" clip-rule="evenodd" d="M108.201 98.222C107.961 99.1172 107.138 99.7304 106.212 99.7036L96.5358 99.4235C95.2452 99.3861 94.3277 98.1539 94.6619 96.9067L101.383 71.8241C106.657 52.1387 126.892 40.4565 146.577 45.7312C166.263 51.0059 177.945 71.2401 172.67 90.9255L166.801 112.829C166.4 114.325 164.523 114.817 163.44 113.71L155.785 105.889C155.29 105.384 155.099 104.655 155.282 103.972L159.709 87.4525C163.065 74.9254 155.631 62.0491 143.104 58.6925C130.577 55.3359 117.701 62.77 114.344 75.2971L108.201 98.222Z" fill="#F1F2F5"/>
<path d="M155.785 105.889L154.355 107.288L155.785 105.889ZM106.212 99.7036L106.154 101.703L106.212 99.7036ZM163.44 113.71L164.869 112.311L163.44 113.71ZM96.5358 99.4235L96.478 101.423L96.5358 99.4235ZM96.478 101.423L106.154 101.703L106.269 97.7044L96.5937 97.4243L96.478 101.423ZM99.4509 71.3065L92.73 96.3891L96.5937 97.4243L103.315 72.3418L99.4509 71.3065ZM147.095 43.7993C126.342 38.2387 105.011 50.5541 99.4509 71.3065L103.315 72.3418C108.303 53.7233 127.441 42.6742 146.059 47.663L147.095 43.7993ZM174.602 91.4432C180.162 70.6908 167.847 49.3599 147.095 43.7993L146.059 47.663C164.678 52.6518 175.727 71.7894 170.738 90.4079L174.602 91.4432ZM168.733 113.347L174.602 91.4432L170.738 90.4079L164.869 112.311L168.733 113.347ZM154.355 107.288L162.011 115.109L164.869 112.311L157.214 104.49L154.355 107.288ZM157.214 104.49L161.641 87.9702L157.777 86.9349L153.35 103.455L157.214 104.49ZM161.641 87.9702C165.283 74.3761 157.216 60.4032 143.622 56.7606L142.586 60.6244C154.047 63.6951 160.848 75.4747 157.777 86.9349L161.641 87.9702ZM143.622 56.7606C130.028 53.1181 116.055 61.1854 112.412 74.7795L116.276 75.8148C119.347 64.3546 131.126 57.5536 142.586 60.6244L143.622 56.7606ZM112.412 74.7795L106.269 97.7044L110.133 98.7397L116.276 75.8148L112.412 74.7795ZM157.214 104.49L157.214 104.49L153.35 103.455C152.985 104.82 153.367 106.277 154.355 107.288L157.214 104.49ZM106.154 101.703C108.007 101.756 109.653 100.53 110.133 98.7397L106.269 97.7044L106.269 97.7044L106.154 101.703ZM164.869 112.311L164.869 112.311L162.011 115.109C164.178 117.323 167.931 116.339 168.733 113.347L164.869 112.311ZM96.5937 97.4243L96.5937 97.4243L92.73 96.3891C92.0617 98.8834 93.8967 101.348 96.478 101.423L96.5937 97.4243Z" fill="#7B7C8D" mask="url(#path-3-inside-1)"/>
<circle cx="114.669" cy="141.639" r="52.6742" transform="rotate(15 114.669 141.639)" fill="#F1F2F5" stroke="#7B7C8D" stroke-width="2"/>
<circle cx="114.669" cy="141.639" r="27.5144" transform="rotate(15 114.669 141.639)" fill="#A7A9BC" stroke="#7B7C8D" stroke-width="2"/>
<path d="M131.525 146.155C127.824 159.968 113.998 168.208 100.691 164.642C87.3842 161.076 79.5308 147.027 83.2318 133.215C86.9328 119.403 100.758 111.163 114.066 114.728C127.373 118.294 135.226 132.343 131.525 146.155Z" fill="#F1F2F5" stroke="#7B7C8D" stroke-width="2"/>
<path fill-rule="evenodd" clip-rule="evenodd" d="M102.508 139.274C101.191 137.835 100.615 135.765 101.16 133.729C102.007 130.571 105.231 128.691 108.363 129.53C111.495 130.369 113.348 133.61 112.502 136.768C111.956 138.804 110.422 140.308 108.562 140.896L108.781 148.902C108.802 149.694 108.06 150.287 107.3 150.083L99.0074 147.861C98.2477 147.658 97.9007 146.773 98.3156 146.098L102.508 139.274Z" fill="#0053F0"/>
<path d="M68.5852 71.904L80.7007 84.0195" stroke="#0053F0" stroke-width="2"/>
<path d="M83.1238 61L87.9701 75.5387" stroke="#0053F0" stroke-width="2"/>
<path d="M60 88.965L75.569 92.2533" stroke="#0053F0" stroke-width="2"/>
</svg>
